<?xml version="1.0" encoding="UTF-8"?>
<svg width="24px" height="24px" viewBox="0 0 24 24" version="1.1" xmlns="http://www.w3.org/2000/svg" xmlns:xlink="http://www.w3.org/1999/xlink">
    <title>完成</title>
    <g id="页面-1" stroke="none" stroke-width="1" fill="none" fill-rule="evenodd">
        <g id="日常反馈" transform="translate(-312.000000, -82.000000)" fill="#FFFFFF" fill-rule="nonzero">
            <g id="完成" transform="translate(312.000000, 82.000000)">
                <path d="M12,0 C5.38330009,0 0,5.38330009 0,12 C0,18.6166999 5.38330009,24 12,24 C18.6166999,24 24,18.6166999 24,12 C24,5.38330009 18.6166999,0 12,0 Z M18.7147961,9.69922397 L10.9110916,17.699216 C10.7245939,17.8901204 10.4687808,17.998513 10.201694,18.0000214 L10.196289,18.0000214 C9.93119845,18.0000214 9.67679784,17.894526 9.48927776,17.7070295 L5.29300604,13.5117094 C4.90231047,13.1215992 4.90231047,12.4883088 5.29300604,12.0977108 C5.68360406,11.7070152 6.31640669,11.7070152 6.70700471,12.0977108 L10.1885041,15.5781157 L17.2851926,8.30081886 C17.6718958,7.90632601 18.3056953,7.89892419 18.6991913,8.28521247 C19.0941957,8.67142793 19.1011097,9.30471592 18.7147977,9.69923494 L18.7147961,9.69922397 Z" id="形状"></path>
            </g>
        </g>
    </g>
</svg>