<?xml version="1.0" encoding="UTF-8"?>
<svg width="18px" height="17px" viewBox="0 0 18 17" version="1.1" xmlns="http://www.w3.org/2000/svg" xmlns:xlink="http://www.w3.org/1999/xlink">
    <title>历史记录</title>
    <g id="页面-1" stroke="none" stroke-width="1" fill="none" fill-rule="evenodd">
        <g id="督办项目台账备份-2" transform="translate(-1693, -491)" fill="#0086D9" fill-rule="nonzero">
            <g id="历史记录" transform="translate(1693, 491)">
                <path d="M9.261,1.47826086 C5.85075001,1.47826086 2.99849999,3.7643913 2.22825001,6.82956522 C2.12883875,7.22593759 1.72220137,7.46784008 1.32,7.36986957 C0.917798632,7.27189906 0.672338745,6.87115498 0.77175,6.47478261 C1.70775,2.75104347 5.15849999,0 9.26249999,0 C14.076,0 18,3.79543478 18,8.5 C18,13.2045652 14.0775,17 9.261,17 C5.373,17 2.07149999,14.5290869 0.939749994,11.1032174 C0.811343787,10.7150092 1.02658289,10.2977192 1.42049999,10.1711739 C1.81441709,10.0446287 2.23784379,10.2567484 2.36624999,10.6449565 C3.29925001,13.469913 6.03,15.5217391 9.261,15.5217391 C13.269,15.5217391 16.5,12.3678696 16.5,8.5 C16.5,4.63213045 13.269,1.47826086 9.261,1.47826086 Z" id="路径"></path>
                <path d="M0.750000006,1.47826086 C1.16421356,1.47826086 1.5,1.80918084 1.5,2.21739131 L1.5,5.91304347 L5.25000001,5.91304347 C5.66421357,5.91304347 6,6.24396344 6,6.65217392 C6,7.06038439 5.66421357,7.39130436 5.25000001,7.39130436 L0.750000006,7.39130436 C0.33578644,7.39130436 0,7.06038439 0,6.65217392 L0,2.21739131 C0,1.80918083 0.33578644,1.47826086 0.750000006,1.47826086 L0.750000006,1.47826086 Z M9,4.43478261 C9.41421357,4.43478261 9.74999999,4.76570258 9.74999999,5.17391305 L9.74999999,8.13043478 C9.74999999,8.53864525 9.41421357,8.86956522 9,8.86956522 C8.58578643,8.86956522 8.24999999,8.53864525 8.24999999,8.13043478 L8.24999999,5.17391305 C8.24999999,4.76570258 8.58578643,4.43478261 9,4.43478261 L9,4.43478261 Z" id="形状"></path>
                <path d="M8.46975001,7.60786957 C8.76262489,7.31932641 9.23737511,7.31932641 9.53024999,7.60786957 L11.652,9.69813043 C11.841574,9.88495703 11.9156111,10.1572627 11.8462222,10.4124726 C11.7768333,10.6676825 11.5745602,10.8670241 11.3155972,10.9354074 C11.0566343,11.0037907 10.7803241,10.9308266 10.59075,10.744 L8.46975001,8.65300001 C8.17696355,8.36436968 8.17696355,7.89649989 8.46975001,7.60786957 L8.46975001,7.60786957 Z" id="路径"></path>
            </g>
        </g>
    </g>
</svg>