<?xml version="1.0" encoding="UTF-8"?>
<svg width="20px" height="21px" viewBox="0 0 20 21" version="1.1" xmlns="http://www.w3.org/2000/svg" xmlns:xlink="http://www.w3.org/1999/xlink">
    <title>超期已反馈</title>
    <g id="页面-1" stroke="none" stroke-width="1" fill="none" fill-rule="evenodd">
        <g id="督办项目台账" transform="translate(-336, -613)">
            <g id="超期已反馈" transform="translate(336, 613)">
                <path d="M16.8342644,6.27853698 L16.8342644,18.5703435 C16.8342644,18.9838293 16.4990689,19.3255532 16.0859997,19.3255532 L2.26849501,19.3255532 C1.85881159,19.3255532 1.52023025,18.9872466 1.52023025,18.5703435 L1.52023025,3.17226727 C1.52023025,2.75878143 1.85542578,2.41705759 2.26849501,2.41705759 L12.8897918,2.41705759 C13.3705773,2.41705759 13.75656,2.02407517 13.75656,1.54224456 C13.75656,1.09800357 13.4010496,0.73919352 12.9608939,0.73919352 L2.4411715,0.73919352 C1.09700356,0.73919352 0,1.84637877 0,3.20302242 L0,18.5361711 C0,19.8928148 1.09700356,21 2.4411715,21 L15.916709,21 C17.2608769,21 18.3578805,19.8928148 18.3578805,18.5361711 L18.3578805,6.29220592 C18.3578805,5.86505112 18.0125275,5.51649282 17.5893008,5.51649282 C17.1728458,5.51649282 16.8342644,5.85821666 16.8342644,6.27853698 Z" id="路径" fill="#E51919" fill-rule="nonzero"></path>
                <path d="M19.8519805,1.03466155 L13.53374,7.41110898 C13.3363806,7.60916946 13.0156716,7.60916946 12.8183123,7.41385982 L12.6483639,7.24330774 C12.4510046,7.04524725 12.4510046,6.72339896 12.6456228,6.52533847 L18.9666045,0.148891023 C19.1639638,-0.0491694625 19.4846728,-0.0491694625 19.6820321,0.14614018 L19.8519805,0.31669226 C20.0493398,0.514752745 20.0493398,0.836601045 19.8519805,1.03466155 Z" id="形状" fill="#E51919" fill-rule="nonzero"></path>
                <line x1="4.1377777" y1="16.0017349" x2="11.861375" y2="16.0017349" id="路径-11" stroke="#E51919" stroke-width="1.4" stroke-linecap="round"></line>
                <polyline id="路径-4" stroke="#E51919" stroke-width="1.4" stroke-linecap="round" points="4.1377777 10.2278081 5.72519545 11.56 10.5201952 7.13108809"></polyline>
            </g>
        </g>
    </g>
</svg>