<?xml version="1.0" encoding="UTF-8"?>
<svg width="20px" height="20px" viewBox="0 0 20 20" version="1.1" xmlns="http://www.w3.org/2000/svg" xmlns:xlink="http://www.w3.org/1999/xlink">
    <title>协办</title>
    <g id="页面-1" stroke="none" stroke-width="1" fill="none" fill-rule="evenodd">
        <g id="督办项目台账备份-2" transform="translate(-397, -600)">
            <g id="协办" transform="translate(397, 600)">
                <circle id="椭圆形" stroke="#666666" stroke-width="1.33333333" cx="10" cy="10" r="9.33333333"></circle>
                <g id="协" transform="translate(4, 4)" fill="#666666" fill-rule="nonzero">
                    <path d="M10.9946294,4.92274211 L10.2212675,5.18389554 C10.2212675,4.28291621 10.2341568,3.27747552 10.2341568,2.16757345 L7.6433942,2.16757345 L7.6433942,0.0261153428 L6.4575725,0.0261153428 L6.4575725,2.16757345 L4.36949517,2.16757345 L4.36949517,3.36887922 L6.4575725,3.36887922 L6.4575725,3.44722524 C6.4189044,6.99891186 5.47798067,9.57127312 3.64769066,11.1773667 L4.56283566,12 C6.5735768,10.1980413 7.59183673,7.35146899 7.6433942,3.44722524 L7.6433942,3.36887922 L9.02255639,3.36887922 C8.99677766,6.95973885 8.95810956,9.06202394 8.88077336,9.68879217 C8.7905478,10.3677911 8.48120301,10.7072905 7.93984962,10.7072905 C7.63050483,10.7072905 7.25671321,10.6811752 6.84425349,10.6550598 L7.14070892,11.7910773 C7.6047261,11.8302503 7.93984962,11.8563656 8.14607948,11.8563656 C9.28034372,11.8563656 9.91192266,11.3210011 10.0408163,10.2633297 C10.1181525,9.54515778 10.1825994,8.00435256 10.2212675,5.64091404 C10.5177229,6.45048966 10.8012889,7.36452666 11.084855,8.38302503 L12,7.95212187 C11.7035446,6.88139282 11.3684211,5.86289445 10.9946294,4.92274211 Z M4.5112782,4.8835691 C4.22771214,6.05875952 3.75080559,7.07725789 3.09344791,7.92600653 L3.91836735,8.70946681 C4.58861439,7.87377584 5.11707841,6.68552775 5.47798067,5.13166485 L4.5112782,4.8835691 Z M0,2.89880305 L0,4.0609358 L1.39205156,4.0609358 L1.39205156,11.9738847 L2.56498389,11.9738847 L2.56498389,4.0609358 L3.90547798,4.0609358 L3.90547798,2.89880305 L2.56498389,2.89880305 L2.56498389,0 L1.39205156,0 L1.39205156,2.89880305 L0,2.89880305 Z" id="形状"></path>
                </g>
            </g>
        </g>
    </g>
</svg>