<?xml version="1.0" encoding="UTF-8"?>
<svg width="20px" height="20px" viewBox="0 0 20 20" version="1.1" xmlns="http://www.w3.org/2000/svg" xmlns:xlink="http://www.w3.org/1999/xlink">
    <title>主办</title>
    <g id="页面-1" stroke="none" stroke-width="1" fill="none" fill-rule="evenodd">
        <g id="督办项目台账备份-2" transform="translate(-397, -492)">
            <g id="主办" transform="translate(397, 492)">
                <circle id="椭圆形" stroke="#666666" stroke-width="1.33333333" cx="10" cy="10" r="9.33333333"></circle>
                <g id="主" transform="translate(4, 4)" fill="#666666" fill-rule="nonzero">
                    <path d="M5.34826428,3.48040314 L5.34826428,6.27547592 L1.11534155,6.27547592 L1.11534155,7.47144457 L5.34826428,7.47144457 L5.34826428,10.75028 L0,10.75028 L0,12 L12,12 L12,10.75028 L6.63829787,10.75028 L6.63829787,7.47144457 L10.8846585,7.47144457 L10.8846585,6.27547592 L6.63829787,6.27547592 L6.63829787,3.48040314 L11.5296753,3.48040314 L11.5296753,2.23068309 L6.55767077,2.23068309 L6.59798432,2.21724524 C6.40985442,1.54535274 6.15453527,0.806270997 5.81858903,0 L4.58230683,0.335946249 C4.87793953,0.940649496 5.13325868,1.57222844 5.34826428,2.23068309 L0.470324748,2.23068309 L0.470324748,3.48040314 L5.34826428,3.48040314 Z" id="路径"></path>
                </g>
            </g>
        </g>
    </g>
</svg>